# xmcd CD database file
#
# Track frame offsets:
#	150
#	17362
#	36915
#	51070
#	71545
#	86035
#	107697
#	124787
#	143910
#	161747
#	180937
#	198625
#
# Disc length: 2913 seconds
#
# Revision: 2
# Processed by: cddbd v1.5.2PL0 Copyright (c) Steve Scherf et al.
# Submitted via: CDex 1.79
#
DISCID=9e0b5f0c
DTITLE=The Stabel Singers - The Soul of Christmas
DYEAR=1996
DGENRE=Soul
TTITLE0=The Stables Singers - God Rest Ye Merry Gentelmen
TTITLE1=The Stables Singers - The First Noel
TTITLE2=The Stables Singers - O Come All Ye Faithfull
TTITLE3=The Stables Singers - Ding Dong Merrily On High
TTITLE4=The Stables Singers - Once in Royal David's City
TTITLE5=The Stables Singers - Silent Night
TTITLE6=The Stables Singers - While Sheperd's Watched
TTITLE7=The Stables Singers - O Little Town Of Bethlehem (1st Part)
TTITLE8=The Stables Singers - We Three Kings
TTITLE9=The Stables Singers - Away In A Manger
TTITLE10=The Stables Singers - Hark The Herald Angels Sing
TTITLE11=The Stables Singers - Auld Lang Syne
EXTD=YEAR: 1996
EXTT0=
EXTT1=
EXTT2=
EXTT3=
EXTT4=
EXTT5=
EXTT6=
EXTT7=
EXTT8=
EXTT9=
EXTT10=
EXTT11=
PLAYORDER=
